# 3ds Max Wavefront OBJ Exporter v0.97b - (c)2007 guruware
# 创建的文件:04.05.2018 16:57:37

mtllib 机翅2.mtl

#
# object Object030
#

v  -7634.9541 4830.8418 3345.6804
v  -7327.5952 4741.2373 4815.1318
v  -7239.8955 4741.1396 4798.9663
v  -7375.9209 4742.3672 3283.6423
v  -7147.2432 4741.0464 4798.5518
v  -7110.1870 4653.7993 3296.2434
v  -7640.0591 4744.2139 341.1431
v  -7239.8970 4715.7397 4798.9517
v  -7327.6309 4715.8403 4814.7300
v  -7635.0542 4805.4668 3344.5618
v  -7375.9224 4716.9668 3283.6272
v  -7110.0894 4628.4233 3297.3323
v  -7147.2100 4715.6494 4798.9238
v  -7640.0601 4718.8140 341.1284
v  -6827.5176 4830.8418 6445.1792
v  -7134.8774 4741.2373 4975.7275
v  -7222.5762 4741.1396 4991.8931
v  -7086.5503 4742.3672 6507.2178
v  -7315.2290 4741.0464 4992.3071
v  -7352.2842 4653.7993 6494.6167
v  -6822.4131 4744.2139 9449.7168
v  -7222.5752 4715.7397 4991.9087
v  -7134.8413 4715.8403 4976.1299
v  -6827.4175 4805.4668 6446.2974
v  -7086.5498 4716.9668 6507.2329
v  -7352.3828 4628.4233 6493.5273
v  -7315.2627 4715.6494 4991.9360
v  -6822.4116 4718.8140 9449.7305
# 28 vertices

vn 0.3113 0.9500 -0.0261
vn 0.0119 0.9982 0.0584
vn 0.0411 0.9992 -0.0028
vn 0.3172 0.9480 -0.0278
vn 0.0007 0.9983 -0.0580
vn 0.3110 0.9500 -0.0285
vn 0.3172 0.9480 -0.0279
vn -0.0411 -0.9992 0.0029
vn -0.0117 -0.9982 -0.0584
vn -0.3114 -0.9499 0.0261
vn -0.3172 -0.9480 0.0278
vn -0.3109 -0.9500 0.0284
vn -0.0010 -0.9983 0.0580
vn -0.3172 -0.9480 0.0279
vn -0.9788 -0.0019 0.2046
vn -0.9789 -0.0052 0.2044
vn 0.1770 -0.0006 0.9842
vn 0.1812 -0.0158 0.9833
vn 0.0003 0.0146 0.9999
vn 0.0045 -0.0006 1.0000
vn 0.9997 0.0049 0.0244
vn 0.9997 0.0017 0.0246
vn 0.9843 0.0001 -0.1765
vn 0.9843 -0.0038 -0.1766
vn -1.0000 0.0039 0.0016
vn -1.0000 0.0001 0.0017
vn -0.3113 0.9500 0.0261
vn -0.0119 0.9982 -0.0584
vn -0.0411 0.9992 0.0028
vn -0.3172 0.9480 0.0278
vn -0.0007 0.9983 0.0580
vn -0.3110 0.9500 0.0285
vn -0.3172 0.9480 0.0279
vn 0.0411 -0.9992 -0.0029
vn 0.0117 -0.9982 0.0584
vn 0.3114 -0.9499 -0.0261
vn 0.3172 -0.9480 -0.0278
vn 0.3109 -0.9500 -0.0284
vn 0.0010 -0.9983 -0.0580
vn 0.3172 -0.9480 -0.0279
vn 0.9788 -0.0018 -0.2046
vn 0.9789 -0.0051 -0.2044
vn -0.1770 -0.0006 -0.9842
vn -0.1812 -0.0158 -0.9833
vn -0.0003 0.0146 -0.9999
vn -0.0045 -0.0006 -1.0000
vn -0.9997 0.0049 -0.0244
vn -0.9997 0.0017 -0.0246
vn -0.9843 0.0000 0.1765
vn -0.9843 -0.0038 0.1766
vn 1.0000 0.0039 -0.0016
vn 1.0000 0.0000 -0.0017
# 52 vertex normals

vt 10.8757 -61.6905 0.0000
vt 3.9958 -2.9878 0.0000
vt 0.5000 -3.3130 0.0000
vt 0.5000 -63.2113 0.0000
vt -3.1346 -3.0031 0.0000
vt -9.8757 -61.7819 0.0000
vt 0.5000 -179.5236 0.0000
vt 0.5000 -3.3136 0.0000
vt -2.9958 -3.0037 0.0000
vt -9.8757 -61.7347 0.0000
vt 0.5000 -63.2119 0.0000
vt 10.8757 -61.7388 0.0000
vt 4.1346 -2.9884 0.0000
vt 0.5000 -179.5242 0.0000
vt -61.7347 3.4856 0.0000
vt -3.0037 -0.0430 0.0000
vt -2.9878 0.9569 0.0000
vt -61.6905 4.4846 0.0000
vt -2.9958 -0.0430 0.0000
vt 0.5000 -0.0470 0.0000
vt 0.5000 0.9530 0.0000
vt -2.9958 0.9569 0.0000
vt 4.1346 -0.0505 0.0000
vt 4.1346 0.9494 0.0000
vt 3.9884 -0.0505 0.0000
vt 62.7388 -3.4846 0.0000
vt 62.7819 -2.4855 0.0000
vt 4.0031 0.9494 0.0000
vt 180.5242 0.0741 0.0000
vt 180.5236 1.0741 0.0000
vt -179.5242 0.0741 0.0000
vt -179.5236 1.0741 0.0000
vt -9.8757 62.6905 0.0000
vt -2.9958 3.9879 0.0000
vt 0.5000 4.3131 0.0000
vt 0.5000 64.2113 0.0000
vt 4.1346 4.0032 0.0000
vt 10.8757 62.7819 0.0000
vt 0.5000 180.5236 0.0000
vt 0.5000 4.3137 0.0000
vt 3.9958 4.0037 0.0000
vt 10.8757 62.7347 0.0000
vt 0.5000 64.2120 0.0000
vt -9.8757 62.7388 0.0000
vt -3.1346 3.9885 0.0000
vt 0.5000 180.5242 0.0000
vt -2.9879 0.9569 0.0000
vt 3.9885 -0.0505 0.0000
vt 4.0032 0.9494 0.0000
# 49 texture coords

g Object030
usemtl Material__2
s 1
f 1/1/1 2/2/2 3/3/3 
f 3/3/3 4/4/4 1/1/1 
f 3/3/3 5/5/5 6/6/6 
f 6/6/6 4/4/4 3/3/3 
f 6/6/6 7/7/7 4/4/4 
f 4/4/4 7/7/7 1/1/1 
f 8/8/8 9/9/9 10/10/10 
f 10/10/10 11/11/11 8/8/8 
f 12/12/12 13/13/13 8/8/8 
f 8/8/8 11/11/11 12/12/12 
f 11/11/11 14/14/14 12/12/12 
f 10/10/10 14/14/14 11/11/11 
s 2
f 10/15/15 9/16/15 2/17/15 
f 2/17/16 1/18/16 10/15/16 
s 4
f 9/19/17 8/20/17 3/21/17 
f 3/21/18 2/22/18 9/19/18 
f 8/20/19 13/23/19 5/24/19 
f 5/24/20 3/21/20 8/20/20 
s 8
f 13/25/21 12/26/21 6/27/21 
f 6/27/22 5/28/22 13/25/22 
f 12/26/23 14/29/23 7/30/23 
f 7/30/24 6/27/24 12/26/24 
s 2
f 14/31/25 10/15/25 1/18/25 
f 1/18/26 7/32/26 14/31/26 
s 1
f 15/33/27 16/34/28 17/35/29 
f 17/35/29 18/36/30 15/33/27 
f 17/35/29 19/37/31 20/38/32 
f 20/38/32 18/36/30 17/35/29 
f 20/38/32 21/39/33 18/36/30 
f 18/36/30 21/39/33 15/33/27 
f 22/40/34 23/41/35 24/42/36 
f 24/42/36 25/43/37 22/40/34 
f 26/44/38 27/45/39 22/40/34 
f 22/40/34 25/43/37 26/44/38 
f 25/43/37 28/46/40 26/44/38 
f 24/42/36 28/46/40 25/43/37 
s 2
f 24/15/41 23/16/41 16/47/41 
f 16/47/42 15/18/42 24/15/42 
s 4
f 23/19/43 22/20/43 17/21/43 
f 17/21/44 16/22/44 23/19/44 
f 22/20/45 27/23/45 19/24/45 
f 19/24/46 17/21/46 22/20/46 
s 8
f 27/48/47 26/26/47 20/27/47 
f 20/27/48 19/49/48 27/48/48 
f 26/26/49 28/29/49 21/30/49 
f 21/30/50 20/27/50 26/26/50 
s 2
f 28/31/51 24/15/51 15/18/51 
f 15/18/52 21/32/52 28/31/52 
# 48 faces

