# 3ds Max Wavefront OBJ Exporter v0.97b - (c)2007 guruware
# 创建的文件:04.05.2018 16:39:29

mtllib 机翅1.mtl

#
# object Object024
#

v  7441.7529 4830.8418 4474.9360
v  5975.7197 4741.2373 4798.2065
v  5992.8359 4741.1396 4885.7251
v  7506.5957 4742.3672 4733.2817
v  5994.2534 4741.0464 4978.3682
v  7496.8760 4653.7993 4999.1362
v  10446.0596 4744.2139 4437.2632
v  5992.8511 4715.7397 4885.7236
v  5976.1211 4715.8403 4798.1655
v  7442.8706 4805.4668 4474.8232
v  7506.6108 4716.9668 4733.2803
v  7495.7886 4628.4233 4999.2461
v  5993.8823 4715.6494 4978.4053
v  10446.0742 4718.8140 4437.2617
v  4351.1895 4830.8418 5315.9233
v  5817.2231 4741.2373 4992.6533
v  5800.1074 4741.1396 4905.1348
v  4286.3477 4742.3672 5057.5767
v  5798.6885 4741.0464 4812.4917
v  4296.0664 4653.7993 4791.7236
v  1346.8838 4744.2139 5353.5962
v  5800.0923 4715.7397 4905.1362
v  5816.8213 4715.8403 4992.6934
v  4350.0723 4805.4668 5316.0361
v  4286.3320 4716.9668 5057.5791
v  4297.1543 4628.4233 4791.6138
v  5799.0601 4715.6494 4812.4546
v  1346.8691 4718.8140 5353.5977
# 28 vertices

vn 0.0294 0.9500 0.3110
vn -0.0583 0.9982 0.0125
vn 0.0032 0.9992 0.0410
vn 0.0312 0.9480 0.3169
vn 0.0580 0.9983 0.0001
vn 0.0318 0.9500 0.3106
vn 0.0313 0.9480 0.3169
vn -0.0034 -0.9992 -0.0410
vn 0.0583 -0.9982 -0.0123
vn -0.0294 -0.9499 -0.3111
vn -0.0312 -0.9480 -0.3169
vn -0.0318 -0.9500 -0.3105
vn -0.0580 -0.9983 -0.0003
vn -0.0313 -0.9480 -0.3169
vn -0.2152 -0.0018 -0.9766
vn -0.2150 -0.0051 -0.9766
vn -0.9822 -0.0006 0.1877
vn -0.9813 -0.0158 0.1919
vn -0.9998 0.0146 0.0111
vn -0.9999 -0.0006 0.0153
vn -0.0136 0.0049 0.9999
vn -0.0137 0.0017 0.9999
vn 0.1871 0.0001 0.9823
vn 0.1873 -0.0038 0.9823
vn -0.0124 0.0039 -0.9999
vn -0.0125 0.0001 -0.9999
vn -0.0294 0.9500 -0.3110
vn 0.0583 0.9982 -0.0125
vn -0.0032 0.9992 -0.0410
vn -0.0312 0.9480 -0.3169
vn -0.0580 0.9983 -0.0001
vn -0.0318 0.9500 -0.3106
vn -0.0313 0.9480 -0.3169
vn 0.0034 -0.9992 0.0410
vn -0.0583 -0.9982 0.0123
vn 0.0294 -0.9499 0.3111
vn 0.0312 -0.9480 0.3169
vn 0.0318 -0.9500 0.3105
vn 0.0580 -0.9983 0.0003
vn 0.0313 -0.9480 0.3169
vn 0.2152 -0.0018 0.9766
vn 0.2150 -0.0051 0.9766
vn 0.9822 -0.0006 -0.1877
vn 0.9813 -0.0158 -0.1919
vn 0.9998 0.0146 -0.0111
vn 0.9999 -0.0006 -0.0153
vn 0.0136 0.0049 -0.9999
vn 0.0137 0.0017 -0.9999
vn -0.1871 0.0001 -0.9823
vn -0.1873 -0.0038 -0.9823
vn 0.0124 0.0039 0.9999
vn 0.0125 0.0001 0.9999
# 52 vertex normals

vt 10.8757 -61.6905 0.0000
vt 3.9958 -2.9878 0.0000
vt 0.5000 -3.3130 0.0000
vt 0.5000 -63.2113 0.0000
vt -3.1346 -3.0031 0.0000
vt -9.8757 -61.7819 0.0000
vt 0.5000 -179.5236 0.0000
vt 0.5000 -3.3136 0.0000
vt -2.9958 -3.0037 0.0000
vt -9.8757 -61.7347 0.0000
vt 0.5000 -63.2119 0.0000
vt 10.8757 -61.7388 0.0000
vt 4.1346 -2.9884 0.0000
vt 0.5000 -179.5242 0.0000
vt -61.7347 3.4856 0.0000
vt -3.0037 -0.0430 0.0000
vt -2.9878 0.9569 0.0000
vt -61.6905 4.4846 0.0000
vt -2.9958 -0.0430 0.0000
vt 0.5000 -0.0470 0.0000
vt 0.5000 0.9530 0.0000
vt -2.9958 0.9569 0.0000
vt 4.1346 -0.0505 0.0000
vt 4.1346 0.9494 0.0000
vt 3.9884 -0.0505 0.0000
vt 62.7388 -3.4846 0.0000
vt 62.7819 -2.4855 0.0000
vt 4.0031 0.9494 0.0000
vt 180.5242 0.0741 0.0000
vt 180.5236 1.0741 0.0000
vt -179.5242 0.0741 0.0000
vt -179.5236 1.0741 0.0000
vt -9.8757 62.6905 0.0000
vt -2.9958 3.9879 0.0000
vt 0.5000 4.3131 0.0000
vt 0.5000 64.2113 0.0000
vt 4.1346 4.0032 0.0000
vt 10.8757 62.7819 0.0000
vt 0.5000 180.5236 0.0000
vt 0.5000 4.3137 0.0000
vt 3.9958 4.0037 0.0000
vt 10.8757 62.7347 0.0000
vt 0.5000 64.2120 0.0000
vt -9.8757 62.7388 0.0000
vt -3.1346 3.9885 0.0000
vt 0.5000 180.5242 0.0000
vt -2.9879 0.9569 0.0000
vt 3.9885 -0.0505 0.0000
vt 4.0032 0.9494 0.0000
# 49 texture coords

g Object024
usemtl Material__0
s 1
f 1/1/1 2/2/2 3/3/3 
f 3/3/3 4/4/4 1/1/1 
f 3/3/3 5/5/5 6/6/6 
f 6/6/6 4/4/4 3/3/3 
f 6/6/6 7/7/7 4/4/4 
f 4/4/4 7/7/7 1/1/1 
f 8/8/8 9/9/9 10/10/10 
f 10/10/10 11/11/11 8/8/8 
f 12/12/12 13/13/13 8/8/8 
f 8/8/8 11/11/11 12/12/12 
f 11/11/11 14/14/14 12/12/12 
f 10/10/10 14/14/14 11/11/11 
s 2
f 10/15/15 9/16/15 2/17/15 
f 2/17/16 1/18/16 10/15/16 
s 4
f 9/19/17 8/20/17 3/21/17 
f 3/21/18 2/22/18 9/19/18 
f 8/20/19 13/23/19 5/24/19 
f 5/24/20 3/21/20 8/20/20 
s 8
f 13/25/21 12/26/21 6/27/21 
f 6/27/22 5/28/22 13/25/22 
f 12/26/23 14/29/23 7/30/23 
f 7/30/24 6/27/24 12/26/24 
s 2
f 14/31/25 10/15/25 1/18/25 
f 1/18/26 7/32/26 14/31/26 
s 1
f 15/33/27 16/34/28 17/35/29 
f 17/35/29 18/36/30 15/33/27 
f 17/35/29 19/37/31 20/38/32 
f 20/38/32 18/36/30 17/35/29 
f 20/38/32 21/39/33 18/36/30 
f 18/36/30 21/39/33 15/33/27 
f 22/40/34 23/41/35 24/42/36 
f 24/42/36 25/43/37 22/40/34 
f 26/44/38 27/45/39 22/40/34 
f 22/40/34 25/43/37 26/44/38 
f 25/43/37 28/46/40 26/44/38 
f 24/42/36 28/46/40 25/43/37 
s 2
f 24/15/41 23/16/41 16/47/41 
f 16/47/42 15/18/42 24/15/42 
s 4
f 23/19/43 22/20/43 17/21/43 
f 17/21/44 16/22/44 23/19/44 
f 22/20/45 27/23/45 19/24/45 
f 19/24/46 17/21/46 22/20/46 
s 8
f 27/48/47 26/26/47 20/27/47 
f 20/27/48 19/49/48 27/48/48 
f 26/26/49 28/29/49 21/30/49 
f 21/30/50 20/27/50 26/26/50 
s 2
f 28/31/51 24/15/51 15/18/51 
f 15/18/52 21/32/52 28/31/52 
# 48 faces

